<?xml version="1.0" encoding="utf-8"?>
<!-- Generator: Adobe Illustrator 19.2.1, SVG Export Plug-In . SVG Version: 6.00 Build 0)  -->
<svg version="1.1" id="text_xA0_Image_1_" xmlns="http://www.w3.org/2000/svg" xmlns:xlink="http://www.w3.org/1999/xlink" x="0px"
	 y="0px" viewBox="0 0 600 111.4" style="enable-background:new 0 0 600 111.4;" xml:space="preserve">
<g style="fill: white;">
	<path  style="color:white;" d="M12.3,10.1h35.4c11.8,0,19.2,8.2,19.2,18.1c0,7.7-3.1,13.5-10.4,16.4v0.2c7.1,1.8,9.1,8.7,9.6,15.3
		c0.3,4.1,0.2,11.9,2.8,15.5H54.4c-1.7-4.1-1.6-10.5-2.3-15.7c-1-6.9-3.7-9.9-10.9-9.9H26.8v25.6H12.3V10.1z M26.8,39.8h15.8
		c6.4,0,9.9-2.8,9.9-9.4c0-6.3-3.5-9.1-9.9-9.1H26.8V39.8z"/>
	<path d="M78.7,10.1h14.4v65.6H78.7V10.1z"/>
	<path d="M149.5,32.1c-0.9-6.5-7.2-11.5-14.3-11.5c-13,0-17.8,11-17.8,22.5c0,10.9,4.9,22,17.8,22c8.8,0,13.8-6.1,14.9-14.7h14
		c-1.5,16.4-12.8,26.8-28.8,26.8c-20.3,0-32.2-15.2-32.2-34.1c0-19.5,11.9-34.6,32.2-34.6c14.4,0,26.5,8.5,28.3,23.6H149.5z"/>
	<path d="M173.8,10.1h14.4v25.2h26.5V10.1h14.4v65.6h-14.4V47.4h-26.5v28.3h-14.4V10.1z"/>
	<path d="M267.4,10.1h14.4v25.2h26.5V10.1h14.4v65.6h-14.4V47.4h-26.5v28.3h-14.4V10.1z"/>
	<path d="M364.9,8.5c20.3,0,32.2,15.2,32.2,34.6c0,18.9-11.9,34.1-32.2,34.1s-32.2-15.2-32.2-34.1C332.7,23.7,344.6,8.5,364.9,8.5z
		 M364.9,65.1c13,0,17.8-11,17.8-22c0-11.5-4.9-22.5-17.8-22.5c-13,0-17.8,11-17.8,22.5C347.1,54.1,351.9,65.1,364.9,65.1z"/>
	<path d="M407,10.1h14.3l27.4,44h0.2v-44h13.5v65.6h-14.4l-27.3-43.9h-0.2v43.9H407V10.1z"/>
	<path d="M475,10.1h49.1v12.1h-34.6v14.1h31.8v11.2h-31.8v16.1h35.4v12.1H475V10.1z"/>
	<path d="M551.6,50.1l-24.2-40h16.3L559,36l15.2-25.9h16.1L566,50.5v25.2h-14.4V50.1z"/>
</g>
<g style="fill: white;">
	<path d="M11.8,86.7h7.5c4.9,0,5.8,3.2,5.8,5.3c0,2.1-0.9,5.3-5.8,5.2h-4.6v6.6h-3V86.7z M14.8,94.8h4.4c1.3,0,3-0.7,3-2.8
		c0-2.3-1.4-2.8-2.9-2.8h-4.4V94.8z"/>
	<path d="M29.2,86.7h8.2c3.7,0,5.7,1.7,5.7,4.6c0,3.3-2.3,4.1-2.8,4.3v0c1,0.1,2.5,0.9,2.5,3.6c0,2,0.3,3.8,0.9,4.5h-3.2
		c-0.5-0.7-0.5-1.7-0.5-2.5c0-3.1-0.6-4.5-3.4-4.5h-4.4v7h-3V86.7z M32.2,94.5h4.9c1.9,0,2.9-0.9,2.9-2.7c0-2.2-1.4-2.6-3-2.6h-4.9
		V94.5z"/>
	<path d="M47.5,86.7h3v17.1h-3V86.7z"/>
	<path d="M53.7,86.7h3.1l4.3,13.5h0l4.4-13.5h3l-5.8,17.1h-3.3L53.7,86.7z"/>
	<path d="M75,86.7h3.2l6.6,17.1h-3.2l-1.6-4.5h-6.8l-1.6,4.5h-3.1L75,86.7z M73.9,97h5.2l-2.6-7.4h-0.1L73.9,97z"/>
	<path d="M84,86.7h13.8v2.6h-5.4v14.5h-3V89.3H84V86.7z"/>
	<path d="M101.3,86.7h12.3v2.6h-9.3v4.5h8.6v2.4h-8.6v5h9.5v2.6h-12.5V86.7z"/>
	<path d="M125.9,86.7h3v14.5h8.7v2.6h-11.7V86.7z"/>
	<path d="M145.7,86.7h3.2l6.6,17.1h-3.2l-1.6-4.5h-6.8l-1.6,4.5h-3.1L145.7,86.7z M144.6,97h5.2l-2.6-7.4h-0.1L144.6,97z"/>
	<path d="M158.5,86.7h8.3c3.1,0,5.1,1.4,5.1,4.2c0,1.7-0.9,3-2.4,3.6v0c2.1,0.5,3.2,2.1,3.2,4.4c0,2.7-1.9,4.8-6.3,4.8h-7.9V86.7z
		 M161.5,93.9h4.9c1.4,0,2.5-0.8,2.5-2.4c0-1.7-0.9-2.3-2.5-2.3h-4.9V93.9z M161.5,101.4h5.3c1.8,0,2.9-1,2.9-2.7
		c0-1.7-1.1-2.6-2.9-2.6h-5.3V101.4z"/>
	<path d="M176.8,86.7h12.3v2.6h-9.3v4.5h8.6v2.4h-8.6v5h9.5v2.6h-12.5V86.7z"/>
	<path d="M193.3,86.7h3v14.5h8.7v2.6h-11.7V86.7z"/>
	<path d="M216.6,85h1.6v24h-1.6V85z"/>
	<path d="M236,86.7h3.2l6.6,17.1h-3.2l-1.6-4.5h-6.8l-1.6,4.5h-3.1L236,86.7z M235,97h5.2l-2.6-7.4h-0.1L235,97z"/>
	<path d="M248.9,86.7h7.5c4.9,0,5.8,3.2,5.8,5.3c0,2.1-0.9,5.3-5.8,5.2h-4.6v6.6h-3V86.7z M251.9,94.8h4.4c1.3,0,3-0.7,3-2.8
		c0-2.3-1.4-2.8-2.9-2.8h-4.4V94.8z"/>
	<path d="M266.3,86.7h7.5c4.9,0,5.8,3.2,5.8,5.3c0,2.1-0.9,5.3-5.8,5.2h-4.6v6.6h-3V86.7z M269.3,94.8h4.4c1.3,0,3-0.7,3-2.8
		c0-2.3-1.4-2.8-2.9-2.8h-4.4V94.8z"/>
	<path d="M286.5,86.7h3.2l6.6,17.1h-3.2l-1.6-4.5h-6.8l-1.6,4.5H280L286.5,86.7z M285.5,97h5.2l-2.6-7.4h-0.1L285.5,97z"/>
	<path d="M299.4,86.7h8.2c3.7,0,5.7,1.7,5.7,4.6c0,3.3-2.3,4.1-2.8,4.3v0c1,0.1,2.5,0.9,2.5,3.6c0,2,0.3,3.8,0.9,4.5h-3.2
		c-0.5-0.7-0.5-1.7-0.5-2.5c0-3.1-0.6-4.5-3.4-4.5h-4.4v7h-3V86.7z M302.4,94.5h4.9c1.9,0,2.9-0.9,2.9-2.7c0-2.2-1.4-2.6-3-2.6h-4.9
		V94.5z"/>
	<path d="M317.7,86.7H330v2.6h-9.3v4.5h8.6v2.4h-8.6v5h9.5v2.6h-12.5V86.7z"/>
	<path d="M334.2,86.7h3v14.5h8.7v2.6h-11.7V86.7z"/>
	<path d="M357.5,85h1.6v24h-1.6V85z"/>
	<path d="M372.3,86.7h3v14.5h8.7v2.6h-11.7V86.7z"/>
	<path d="M387.5,86.7h12.3v2.6h-9.3v4.5h8.6v2.4h-8.6v5h9.5v2.6h-12.5V86.7z"/>
	<path d="M408.6,86.7h3.2l6.6,17.1h-3.2l-1.6-4.5h-6.8l-1.6,4.5h-3.1L408.6,86.7z M407.6,97h5.2l-2.6-7.4h-0.1L407.6,97z"/>
	<path d="M417.7,86.7h13.8v2.6h-5.4v14.5h-3V89.3h-5.4V86.7z"/>
	<path d="M434.9,86.7h3v6.8h7.8v-6.8h3v17.1h-3v-7.7h-7.8v7.7h-3V86.7z"/>
	<path d="M453.7,86.7H466v2.6h-9.3v4.5h8.6v2.4h-8.6v5h9.5v2.6h-12.5V86.7z"/>
	<path d="M470.2,86.7h8.2c3.7,0,5.7,1.7,5.7,4.6c0,3.3-2.3,4.1-2.8,4.3v0c1,0.1,2.5,0.9,2.5,3.6c0,2,0.3,3.8,0.9,4.5h-3.2
		c-0.5-0.7-0.5-1.7-0.5-2.5c0-3.1-0.6-4.5-3.4-4.5h-4.4v7h-3V86.7z M473.2,94.5h4.9c1.9,0,2.9-0.9,2.9-2.7c0-2.2-1.4-2.6-3-2.6h-4.9
		V94.5z"/>
	<path d="M511.5,103.8h-1.9l-0.5-2c-1.6,1.8-3.1,2.4-5.2,2.4c-5.1,0-8.2-4.1-8.2-9c0-4.9,3.1-9,8.2-9c3.7,0,6.9,2,7.3,5.8h-2.9
		c-0.3-2.3-2.3-3.4-4.4-3.4c-3.7,0-5.2,3.2-5.2,6.5c0,3.3,1.5,6.5,5.2,6.5c3.1,0,4.7-1.8,4.8-4.7h-4.6v-2.3h7.3V103.8z"/>
	<path d="M531.7,95.3c0,4.9-3.1,9-8.2,9s-8.2-4.1-8.2-9c0-4.9,3.1-9,8.2-9S531.7,90.4,531.7,95.3z M518.3,95.3
		c0,3.3,1.5,6.5,5.2,6.5s5.2-3.2,5.2-6.5c0-3.3-1.5-6.5-5.2-6.5S518.3,92,518.3,95.3z"/>
	<path d="M551.3,95.3c0,4.9-3.1,9-8.2,9s-8.2-4.1-8.2-9c0-4.9,3.1-9,8.2-9S551.3,90.4,551.3,95.3z M537.9,95.3
		c0,3.3,1.5,6.5,5.2,6.5s5.2-3.2,5.2-6.5c0-3.3-1.5-6.5-5.2-6.5S537.9,92,537.9,95.3z"/>
	<path d="M555.5,86.7h7.1c5.3,0,7.5,3.8,7.5,8.6c0,4.7-2.3,8.6-7.5,8.6h-7.1V86.7z M558.5,101.4h2.9c4.7,0,5.7-2.7,5.7-6.1
		s-1-6.1-5.7-6.1h-2.9V101.4z"/>
	<path d="M576.2,98.1c0,2.6,1.9,3.7,4.3,3.7c2.6,0,3.6-1.3,3.6-2.6c0-1.3-0.7-1.8-1.4-2.1c-1.2-0.5-2.8-0.8-5.1-1.4
		c-2.9-0.8-3.8-2.6-3.8-4.3c0-3.4,3.2-5,6.3-5c3.6,0,6.6,1.9,6.6,5.5h-3c-0.1-2.2-1.6-3-3.7-3c-1.4,0-3.1,0.5-3.1,2.2
		c0,1.2,0.8,1.9,2,2.2c0.3,0.1,4,1.1,4.9,1.3c2.3,0.7,3.3,2.6,3.3,4.4c0,3.8-3.4,5.4-6.8,5.4c-3.9,0-7.1-1.9-7.1-6.1H576.2z"/>
</g>
</svg>
